<svg width="14" height="14" viewBox="0 0 14 14" fill="none" xmlns="http://www.w3.org/2000/svg">
<g clip-path="url(#clip0_125_8)">
<path d="M7.00044 1.3125H9.142C11.7969 1.3125 12.8877 3.1974 11.5563 5.49938L10.4815 7.35219L9.40669 9.205C8.07523 11.507 5.90159 11.507 4.57016 9.205L3.49537 7.35219L2.42058 5.49938C1.11318 3.1974 2.19599 1.3125 4.85891 1.3125H7.00044Z" stroke="#292D32" stroke-width="3.75" stroke-miterlimit="10" stroke-linecap="round" stroke-linejoin="round"/>
</g>
<path d="M5.00774 1.27682L9.16046 1.34942C11.7423 1.39455 12.7526 3.67443 11.4212 6.41396L10.8242 7.63571C10.679 7.93159 10.4192 8.10995 10.1392 8.10506L3.79347 7.99412C3.51351 7.98923 3.26008 7.80189 3.12531 7.50112L2.57138 6.25925C1.33652 3.47486 2.4259 1.23168 5.00774 1.27682Z" fill="#292D32"/>
<path d="M4.39888 7.68386L9.55548 7.774C9.86824 7.77947 10.0548 8.11966 9.8898 8.3815L9.36113 9.25469C7.99766 11.5332 5.81632 11.495 4.53334 9.17029L4.03551 8.27916C3.88776 8.01185 4.08612 7.67839 4.39888 7.68386Z" fill="#292D32"/>
<defs>
<clipPath id="clip0_125_8">
<rect width="14" height="13.125" fill="white"/>
</clipPath>
</defs>
</svg>
