<svg width="57" height="57" viewBox="0 0 57 57" fill="none" xmlns="http://www.w3.org/2000/svg">
<path d="M14.25 17.1L16.3277 44.1083C16.4417 45.5932 17.6797 46.74 19.1691 46.74H37.8309C39.3203 46.74 40.5584 45.5932 40.6724 44.1083L42.75 17.1" fill="#F37E98"/>
<path d="M37.0499 21.66V41.61C37.0499 42.5505 36.2804 43.32 35.3399 43.32C34.3994 43.32 33.6299 42.5505 33.6299 41.61V21.66C33.6299 20.7195 34.3994 19.95 35.3399 19.95C36.2804 19.95 37.0499 20.7195 37.0499 21.66ZM30.2099 21.66V41.61C30.2099 42.5505 29.4404 43.32 28.4999 43.32C27.5594 43.32 26.7899 42.5505 26.7899 41.61V21.66C26.7899 20.7195 27.5594 19.95 28.4999 19.95C29.4404 19.95 30.2099 20.7195 30.2099 21.66ZM23.3699 21.66V41.61C23.3699 42.5505 22.6004 43.32 21.6599 43.32C20.7194 43.32 19.9499 42.5505 19.9499 41.61V21.66C19.9499 20.7195 20.7194 19.95 21.6599 19.95C22.6004 19.95 23.3699 20.7195 23.3699 21.66ZM43.8899 13.68H41.6099L40.564 11.9369C40.1518 11.2501 39.4097 10.83 38.6089 10.83H18.391C17.5901 10.83 16.848 11.2501 16.4359 11.9369L15.3899 13.68H13.1099C12.1654 13.68 11.3999 14.4455 11.3999 15.39C11.3999 16.3345 12.1654 17.1 13.1099 17.1H43.8899C44.8344 17.1 45.5999 16.3345 45.5999 15.39C45.5999 14.4455 44.8344 13.68 43.8899 13.68Z" fill="#F15B6C"/>
<path d="M37.8308 47.31H19.169C17.3929 47.31 15.895 45.9226 15.7593 44.1522L13.6816 17.1439L14.8182 17.0561L16.8959 44.065C16.9865 45.2455 17.9851 46.17 19.169 46.17H37.8308C39.0147 46.17 40.0134 45.2455 40.104 44.0656L42.1816 17.0561L43.3182 17.1439L41.2406 44.1528C41.1043 45.9226 39.6064 47.31 37.8308 47.31ZM31.9199 11.4C31.6053 11.4 31.3499 11.1452 31.3499 10.83V9.12C31.3499 8.80536 31.094 8.55 30.7799 8.55H26.2199C25.9059 8.55 25.6499 8.80536 25.6499 9.12V10.83C25.6499 11.1452 25.3946 11.4 25.0799 11.4C24.7653 11.4 24.5099 11.1452 24.5099 10.83V9.12C24.5099 8.17722 25.2772 7.41 26.2199 7.41H30.7799C31.7227 7.41 32.4899 8.17722 32.4899 9.12V10.83C32.4899 11.1452 32.2346 11.4 31.9199 11.4Z" fill="#1F212B"/>
<path d="M43.8901 17.67H13.1101C11.8527 17.67 10.8301 16.6474 10.8301 15.39C10.8301 14.1326 11.8527 13.11 13.1101 13.11H15.0675L15.947 11.644C16.4588 10.7907 17.3953 10.26 18.3911 10.26H38.6096C39.6054 10.26 40.5413 10.7907 41.0532 11.644L41.9327 13.11H43.8901C45.1475 13.11 46.1701 14.1326 46.1701 15.39C46.1701 16.6474 45.1475 17.67 43.8901 17.67ZM13.1101 14.25C12.4814 14.25 11.9701 14.7613 11.9701 15.39C11.9701 16.0187 12.4814 16.53 13.1101 16.53H43.8901C44.5188 16.53 45.0301 16.0187 45.0301 15.39C45.0301 14.7613 44.5188 14.25 43.8901 14.25H41.6101C41.41 14.25 41.2242 14.1446 41.1216 13.9736L40.0756 12.2305C39.7684 11.7186 39.2064 11.4 38.609 11.4H18.3911C17.7938 11.4 17.2323 11.7186 16.9251 12.2305L15.8791 13.9736C15.776 14.1446 15.5901 14.25 15.3901 14.25H13.1101Z" fill="#1F212B"/>
<path d="M35.055 14.25H14.535C14.3777 14.25 14.25 14.1223 14.25 13.965C14.25 13.8077 14.3777 13.68 14.535 13.68H35.055C35.2123 13.68 35.34 13.8077 35.34 13.965C35.34 14.1223 35.2123 14.25 35.055 14.25ZM41.895 14.25H39.045C38.8877 14.25 38.76 14.1223 38.76 13.965C38.76 13.8077 38.8877 13.68 39.045 13.68H41.895C42.0523 13.68 42.18 13.8077 42.18 13.965C42.18 14.1223 42.0523 14.25 41.895 14.25ZM37.905 14.25H36.765C36.6077 14.25 36.48 14.1223 36.48 13.965C36.48 13.8077 36.6077 13.68 36.765 13.68H37.905C38.0623 13.68 38.19 13.8077 38.19 13.965C38.19 14.1223 38.0623 14.25 37.905 14.25ZM28.5 43.32C27.5572 43.32 26.79 42.5528 26.79 41.61V21.66C26.79 20.7172 27.5572 19.95 28.5 19.95C29.4428 19.95 30.21 20.7172 30.21 21.66V36.195C30.21 36.3523 30.0823 36.48 29.925 36.48C29.7677 36.48 29.64 36.3523 29.64 36.195V21.66C29.64 21.0313 29.1287 20.52 28.5 20.52C27.8713 20.52 27.36 21.0313 27.36 21.66V41.61C27.36 42.2387 27.8713 42.75 28.5 42.75C29.1287 42.75 29.64 42.2387 29.64 41.61V39.615C29.64 39.4577 29.7677 39.33 29.925 39.33C30.0823 39.33 30.21 39.4577 30.21 39.615V41.61C30.21 42.5528 29.4428 43.32 28.5 43.32ZM35.34 43.32C34.3972 43.32 33.63 42.5528 33.63 41.61V27.075C33.63 26.9177 33.7577 26.79 33.915 26.79C34.0723 26.79 34.2 26.9177 34.2 27.075V41.61C34.2 42.2387 34.7113 42.75 35.34 42.75C35.9687 42.75 36.48 42.2387 36.48 41.61V21.66C36.48 21.0313 35.9687 20.52 35.34 20.52C34.7113 20.52 34.2 21.0313 34.2 21.66V22.515C34.2 22.6723 34.0723 22.8 33.915 22.8C33.7577 22.8 33.63 22.6723 33.63 22.515V21.66C33.63 20.7172 34.3972 19.95 35.34 19.95C36.2828 19.95 37.05 20.7172 37.05 21.66V41.61C37.05 42.5528 36.2828 43.32 35.34 43.32Z" fill="#1F212B"/>
<path d="M33.915 25.65C33.7576 25.65 33.63 25.5223 33.63 25.365V24.225C33.63 24.0677 33.7576 23.94 33.915 23.94C34.0723 23.94 34.2 24.0677 34.2 24.225V25.365C34.2 25.5223 34.0723 25.65 33.915 25.65ZM21.66 43.32C20.7172 43.32 19.95 42.5528 19.95 41.61V21.66C19.95 20.7172 20.7172 19.95 21.66 19.95C22.6027 19.95 23.37 20.7172 23.37 21.66V41.61C23.37 42.5528 22.6027 43.32 21.66 43.32ZM21.66 20.52C21.0312 20.52 20.52 21.0313 20.52 21.66V41.61C20.52 42.2387 21.0312 42.75 21.66 42.75C22.2887 42.75 22.8 42.2387 22.8 41.61V21.66C22.8 21.0313 22.2887 20.52 21.66 20.52Z" fill="#1F212B"/>
</svg>
