<svg width="50" height="44" viewBox="0 0 50 44" fill="none" xmlns="http://www.w3.org/2000/svg">
<path d="M15.2657 37.4047C8.24547 31.996 0 25.6432 0 14.6305C0 2.47312 13.7504 -6.14862 25 5.5393L30 10.5359C30.7322 11.268 31.9195 11.2678 32.6518 10.5354C33.3838 9.80307 33.3835 8.6159 32.6513 7.8838L27.8212 3.05552C38.4212 -4.70455 50 3.47435 50 14.6305C50 25.6432 41.7545 31.996 34.7342 37.4047C34.0047 37.967 33.2882 38.519 32.5957 39.065C30 41.1112 27.5 43.0377 25 43.0377C22.5 43.0377 20 41.1112 17.4043 39.065C16.7118 38.519 15.9953 37.967 15.2657 37.4047Z" fill="#A4A684"/>
</svg>
