<svg>
	<svg id="cancel" viewBox="0 0 22 22"xmlns="http://www.w3.org/2000/svg">
        <path fill-rule="evenodd" clip-rule="evenodd" d="M11 22C8.8244 22 6.69764 21.3549 4.8887 20.1462C3.07976 18.9375 1.66989 17.2195 0.837325 15.2095C0.00476096 13.1995 -0.213069 10.9878 0.211369 8.85401C0.635806 6.72022 1.68343 4.76021 3.22181 3.22183C4.76019 1.68345 6.72023 0.635804 8.85402 0.211367C10.9878 -0.213071 13.1995 0.00476615 15.2095 0.83733C17.2195 1.66989 18.9375 3.0798 20.1462 4.88874C21.3549 6.69768 22 8.82441 22 11C22 13.9174 20.8411 16.7153 18.7782 18.7782C16.7153 20.8411 13.9174 22 11 22ZM11 1.83334C9.187 1.83334 7.4147 2.37095 5.90725 3.3782C4.3998 4.38545 3.22493 5.81708 2.53112 7.49207C1.83732 9.16706 1.65576 11.0102 2.00945 12.7883C2.36315 14.5665 3.23622 16.1998 4.5182 17.4818C5.80019 18.7638 7.43349 19.6368 9.21165 19.9905C10.9898 20.3442 12.8329 20.1627 14.5079 19.4689C16.1829 18.7751 17.6146 17.6002 18.6218 16.0927C19.6291 14.5853 20.1667 12.813 20.1667 11C20.1667 8.56885 19.2009 6.23728 17.4818 4.51819C15.7627 2.79911 13.4311 1.83334 11 1.83334ZM15.3138 15.3138C15.2329 15.3948 15.1368 15.459 15.031 15.5028C14.9252 15.5466 14.8119 15.5692 14.6974 15.5692C14.5829 15.5692 14.4695 15.5466 14.3638 15.5028C14.258 15.459 14.1619 15.3948 14.0809 15.3138L10.9862 12.2192L7.89159 15.3138C7.81172 15.3985 7.71565 15.4663 7.6091 15.5132C7.50255 15.5601 7.38768 15.5851 7.27128 15.5868C7.15489 15.5885 7.03936 15.5668 6.9315 15.523C6.82365 15.4792 6.72565 15.4142 6.64337 15.3319C6.56109 15.2495 6.49618 15.1515 6.45247 15.0436C6.40876 14.9357 6.38714 14.8201 6.38891 14.7038C6.39068 14.5874 6.4158 14.4725 6.46276 14.366C6.50973 14.2595 6.57759 14.1635 6.66233 14.0837L9.75698 10.989L6.66233 7.89434C6.57759 7.81453 6.50973 7.71852 6.46276 7.61201C6.4158 7.5055 6.39068 7.39064 6.38891 7.27425C6.38714 7.15785 6.40876 7.04229 6.45247 6.9344C6.49618 6.82651 6.56109 6.7285 6.64337 6.64615C6.72565 6.56381 6.82365 6.49881 6.9315 6.45502C7.03936 6.41123 7.15489 6.38954 7.27128 6.39122C7.38768 6.3929 7.50255 6.41792 7.6091 6.46481C7.71565 6.51169 7.81172 6.57948 7.89159 6.66417L10.9862 9.75884L14.0809 6.66417C14.1614 6.58186 14.2573 6.51634 14.3633 6.47138C14.4692 6.42643 14.583 6.40294 14.6981 6.40228C14.8131 6.40162 14.9272 6.4238 15.0336 6.46753C15.1401 6.51126 15.2368 6.57569 15.3182 6.65706C15.3996 6.73844 15.464 6.83514 15.5077 6.94159C15.5515 7.04804 15.5736 7.16211 15.573 7.27719C15.5723 7.39226 15.5488 7.50607 15.5039 7.61201C15.4589 7.71794 15.3934 7.8139 15.3111 7.89434L12.2164 10.989L15.3111 14.0837C15.4743 14.2466 15.5663 14.4676 15.5668 14.6982C15.5673 14.9288 15.4764 15.1502 15.3138 15.3138Z" fill="#A4A684"/>
    </svg>
</svg>