<svg width="314" height="68" viewBox="0 0 314 68" fill="none" xmlns="http://www.w3.org/2000/svg">
<path d="M172.927 43.7199C171.433 43.7199 170.047 43.5332 168.767 43.1599C167.487 42.8399 166.847 42.2799 166.847 41.4799C166.847 40.9466 167.14 40.4666 167.727 40.0399C168.367 39.6132 169.113 39.2932 169.967 39.0799C170.873 38.8132 171.673 38.6799 172.367 38.6799C174.66 38.6799 176.873 39.0266 179.007 39.7199C181.14 40.3599 183.327 41.0266 185.567 41.7199C187.86 42.3599 190.313 42.6799 192.927 42.6799C196.127 42.6799 199.193 42.0132 202.127 40.6799C205.06 39.3466 207.673 37.5332 209.967 35.2399C212.26 32.9466 214.047 30.3599 215.327 27.4799C216.66 24.5466 217.327 21.5066 217.327 18.3599C217.327 14.9999 216.74 12.0666 215.567 9.55992C214.447 7.05325 212.633 5.10658 210.127 3.71992C207.673 2.33325 204.473 1.63992 200.527 1.63992C197.54 1.63992 194.633 2.25325 191.807 3.47992C188.98 4.65325 186.447 6.19992 184.207 8.11992C181.967 9.98658 180.18 12.0132 178.847 14.1999C177.513 16.3866 176.847 18.4399 176.847 20.3599C176.847 21.3732 177.247 22.4132 178.047 23.4799C178.847 24.5466 180.233 25.0799 182.207 25.0799C184.073 25.0799 186.1 24.5999 188.287 23.6399C190.473 22.6266 192.553 21.2932 194.527 19.6399C196.553 17.9332 198.287 16.0399 199.727 13.9599C201.167 11.8266 202.047 9.63992 202.367 7.39992C202.473 6.70658 202.633 6.38658 202.847 6.43992C203.06 6.49325 203.167 6.81325 203.167 7.39992C203.167 9.69325 202.58 11.9599 201.407 14.1999C200.233 16.3866 198.687 18.3599 196.767 20.1199C194.847 21.8799 192.713 23.2932 190.367 24.3599C188.073 25.4266 185.753 25.9599 183.407 25.9599C181.327 25.9599 179.673 25.6132 178.447 24.9199C177.22 24.2266 176.34 23.3732 175.807 22.3599C175.273 21.2932 175.007 20.2532 175.007 19.2399C175.007 17.2132 175.62 15.1332 176.847 12.9999C178.127 10.8132 179.887 8.81325 182.127 6.99992C184.42 5.18658 187.087 3.71992 190.127 2.59992C193.22 1.47992 196.553 0.919922 200.127 0.919922C203.433 0.919922 206.287 1.37325 208.687 2.27992C211.087 3.13325 213.06 4.33325 214.607 5.87992C216.153 7.37325 217.3 9.13325 218.047 11.1599C218.847 13.1332 219.247 15.2399 219.247 17.4799C219.247 21.2132 218.527 24.6799 217.087 27.8799C215.7 31.0266 213.78 33.7732 211.327 36.1199C208.873 38.4666 206.073 40.3066 202.927 41.6399C199.78 42.9199 196.5 43.5599 193.087 43.5599C190.58 43.5599 188.233 43.2666 186.047 42.6799C183.86 42.0932 181.727 41.5332 179.647 40.9999C177.62 40.4132 175.46 40.1199 173.167 40.1199C172.687 40.1199 171.993 40.1466 171.087 40.1999C170.233 40.2532 169.46 40.3866 168.767 40.5999C168.073 40.7599 167.727 41.0532 167.727 41.4799C167.727 41.8532 168.047 42.1466 168.687 42.3599C169.327 42.5732 170.073 42.7066 170.927 42.7599C171.78 42.8132 172.473 42.8399 173.007 42.8399C175.46 42.8399 177.807 42.3866 180.047 41.4799C182.287 40.5199 184.447 39.2132 186.527 37.5599C188.607 35.9066 190.58 34.0399 192.447 31.9599C194.367 29.8266 196.207 27.5866 197.967 25.2399C200.207 22.1999 202.607 19.3199 205.167 16.5999C207.727 13.8799 210.34 11.4799 213.007 9.39992C215.673 7.26659 218.287 5.61325 220.847 4.43992C223.407 3.21325 225.807 2.59992 228.047 2.59992C228.74 2.59992 229.007 2.73325 228.847 2.99992C228.687 3.21325 228.393 3.31992 227.967 3.31992C226.153 3.31992 224.207 3.93325 222.127 5.15992C220.047 6.38659 217.913 8.03992 215.727 10.1199C213.593 12.1999 211.54 14.4932 209.567 16.9999C207.593 19.5066 205.807 22.0399 204.207 24.5999C202.873 26.7332 201.22 28.9199 199.247 31.1599C197.273 33.3999 194.98 35.4799 192.367 37.3999C189.753 39.2666 186.82 40.7866 183.567 41.9599C180.313 43.1332 176.767 43.7199 172.927 43.7199ZM220.892 43.7199C220.146 43.7199 219.319 43.5066 218.412 43.0799C217.452 42.7066 216.972 42.0666 216.972 41.1599C216.972 40.0399 217.479 38.6266 218.492 36.9199C219.506 35.2132 220.759 33.4532 222.252 31.6399C223.692 29.8266 225.106 28.1199 226.492 26.5199C227.879 24.9199 228.919 23.6666 229.612 22.7599C230.199 22.8132 230.892 22.8399 231.692 22.8399C232.546 22.8399 233.292 22.8132 233.932 22.7599C233.186 23.6666 232.199 24.8132 230.972 26.1999C229.799 27.5866 228.546 29.0799 227.212 30.6799C225.932 32.2266 224.679 33.7466 223.452 35.2399C222.279 36.7332 221.319 38.0666 220.572 39.2399C219.826 40.4132 219.452 41.2666 219.452 41.7999C219.452 42.1732 219.612 42.4399 219.932 42.5999C220.252 42.7599 220.786 42.8399 221.532 42.8399C222.812 42.8399 224.226 42.3599 225.772 41.3999C227.372 40.3866 228.919 39.1866 230.412 37.7999C231.906 36.4132 233.239 35.1066 234.412 33.8799C235.586 32.5999 236.412 31.6666 236.892 31.0799L237.532 31.6399C237.052 32.1732 236.226 33.1066 235.052 34.4399C233.932 35.7199 232.572 37.0799 230.972 38.5199C229.426 39.9599 227.772 41.1866 226.012 42.1999C224.306 43.2132 222.599 43.7199 220.892 43.7199ZM236.892 16.6799C236.252 16.6799 235.772 16.4932 235.452 16.1199C235.132 15.6932 234.972 15.2132 234.972 14.6799C234.972 14.0932 235.292 13.4799 235.932 12.8399C236.572 12.1999 237.239 11.8799 237.932 11.8799C238.679 11.8799 239.212 12.0932 239.532 12.5199C239.852 12.8932 240.012 13.2666 240.012 13.6399C240.012 14.4399 239.692 15.1599 239.052 15.7999C238.412 16.3866 237.692 16.6799 236.892 16.6799ZM254.229 28.9999C254.016 29.4266 253.696 29.7999 253.269 30.1199C252.896 30.4399 252.602 30.6532 252.389 30.7599C252.229 30.8132 252.282 30.6532 252.549 30.2799C253.509 29.1066 254.122 28.0132 254.389 26.9999C254.709 25.9866 254.709 25.1866 254.389 24.5999C254.122 23.9599 253.589 23.6399 252.789 23.6399C251.722 23.6399 250.469 24.0666 249.029 24.9199C247.589 25.7732 246.096 26.8932 244.549 28.2799C243.056 29.6666 241.642 31.1599 240.309 32.7599C239.029 34.3066 237.989 35.8266 237.189 37.3199C236.389 38.7599 235.989 40.0132 235.989 41.0799C235.989 41.8799 236.149 42.3866 236.469 42.5999C236.789 42.8132 237.109 42.9199 237.429 42.9199C238.656 42.9199 240.069 42.3599 241.669 41.2399C243.322 40.0666 245.002 38.5999 246.709 36.8399C248.416 35.0799 250.042 33.2932 251.589 31.4799C253.136 29.6132 254.469 27.9332 255.589 26.4399C256.762 24.9466 257.562 23.9332 257.989 23.3999C258.576 23.6132 259.269 23.6932 260.069 23.6399C260.922 23.5866 261.642 23.5332 262.229 23.4799C262.122 23.6399 261.562 24.3066 260.549 25.4799C259.589 26.6532 258.416 28.0666 257.029 29.7199C255.696 31.3199 254.336 32.9732 252.949 34.6799C251.616 36.3866 250.496 37.8799 249.589 39.1599C248.682 40.4399 248.229 41.2932 248.229 41.7199C248.229 42.2532 248.336 42.5999 248.549 42.7599C248.816 42.8666 249.216 42.9199 249.749 42.9199C250.389 42.8666 251.322 42.5732 252.549 42.0399C253.776 41.4532 255.349 40.3332 257.269 38.6799C259.189 37.0266 261.509 34.5732 264.229 31.3199C264.229 31.3199 264.336 31.3999 264.549 31.5599C264.816 31.7199 264.949 31.7999 264.949 31.7999C261.749 35.5332 258.789 38.4666 256.069 40.5999C253.349 42.6799 250.869 43.7199 248.629 43.7199C247.456 43.7199 246.656 43.5332 246.229 43.1599C245.856 42.7866 245.669 42.2532 245.669 41.5599C245.669 41.0266 245.882 40.3866 246.309 39.6399C246.789 38.8399 247.322 38.0666 247.909 37.3199C248.496 36.5732 248.976 35.9866 249.349 35.5599C249.349 35.5599 249.296 35.5332 249.189 35.4799C249.082 35.4266 249.029 35.3999 249.029 35.3999C247.802 36.8932 246.496 38.2799 245.109 39.5599C243.722 40.8399 242.336 41.8532 240.949 42.5999C239.616 43.3466 238.309 43.7199 237.029 43.7199C235.696 43.7199 234.762 43.3999 234.229 42.7599C233.696 42.0666 233.429 41.0266 233.429 39.6399C233.429 38.3066 233.856 36.7066 234.709 34.8399C235.562 32.9199 236.789 31.0532 238.389 29.2399C239.989 27.3732 241.909 25.8266 244.149 24.5999C246.442 23.3732 249.002 22.7599 251.829 22.7599C253.216 22.7599 254.176 23.0266 254.709 23.5599C255.242 24.0399 255.482 24.6266 255.429 25.3199C255.376 26.0132 255.216 26.7066 254.949 27.3999C254.682 28.0932 254.442 28.6266 254.229 28.9999ZM264.211 32.5199C263.998 32.7332 263.838 32.7599 263.731 32.5999C263.624 32.3866 263.598 32.1732 263.651 31.9599C264.558 31.0532 265.438 29.9866 266.291 28.7599C267.198 27.5332 267.944 26.3866 268.531 25.3199C269.171 24.2532 269.544 23.5332 269.651 23.1599C269.758 23.1599 269.918 23.0799 270.131 22.9199C270.398 22.7599 270.638 22.7066 270.851 22.7599C270.798 23.1332 270.718 23.4799 270.611 23.7999C270.558 24.1199 270.744 24.4132 271.171 24.6799C271.598 24.9466 272.478 25.2132 273.811 25.4799C275.144 25.7466 277.171 26.0399 279.891 26.3599C280.158 26.4132 280.344 26.5199 280.451 26.6799C280.611 26.7866 280.531 26.9732 280.211 27.2399C279.198 28.0399 278.078 29.0532 276.851 30.2799C275.624 31.5066 274.424 32.8132 273.251 34.1999C272.131 35.5332 271.198 36.8399 270.451 38.1199C269.758 39.3999 269.411 40.4666 269.411 41.3199C269.411 42.2799 269.838 42.7599 270.691 42.7599C271.758 42.7599 272.958 42.3332 274.291 41.4799C275.678 40.6266 277.064 39.5866 278.451 38.3599C279.838 37.0799 281.118 35.7999 282.291 34.5199C283.518 33.1866 284.531 32.0932 285.331 31.2399L285.971 31.7199C285.224 32.4666 284.264 33.5066 283.091 34.8399C281.918 36.1732 280.584 37.5332 279.091 38.9199C277.651 40.2532 276.104 41.3999 274.451 42.3599C272.798 43.2666 271.091 43.7199 269.331 43.7199C268.318 43.7199 267.411 43.4799 266.611 42.9999C265.811 42.5732 265.411 41.7732 265.411 40.5999C265.411 39.4799 265.891 38.3066 266.851 37.0799C267.811 35.8532 269.011 34.6266 270.451 33.3999C271.891 32.1199 273.384 30.9199 274.931 29.7999C276.531 28.6266 277.944 27.5599 279.171 26.5999L279.731 27.3199C279.198 27.1066 278.264 26.9199 276.931 26.7599C275.598 26.5466 274.211 26.2799 272.771 25.9599C271.331 25.5866 270.078 25.1066 269.011 24.5199C267.998 23.9332 267.491 23.1332 267.491 22.1199C267.491 21.5866 267.704 20.9466 268.131 20.1999C268.611 19.3999 269.251 18.9999 270.051 18.9999C270.798 18.9999 271.304 19.1599 271.571 19.4799C271.838 19.7466 271.971 20.1199 271.971 20.5999C271.971 20.9199 271.704 21.5866 271.171 22.5999C270.638 23.5599 269.971 24.7066 269.171 26.0399C268.371 27.3199 267.518 28.5466 266.611 29.7199C265.758 30.8932 264.958 31.8266 264.211 32.5199ZM293.227 22.6799C293.973 22.8932 294.747 22.9999 295.547 22.9999C296.347 22.9466 297.173 22.8932 298.027 22.8399C296.587 24.2266 294.96 25.8799 293.147 27.7999C291.387 29.6666 289.68 31.5599 288.027 33.4799C286.427 35.3466 285.093 37.0266 284.027 38.5199C282.96 39.9599 282.427 40.9466 282.427 41.4799C282.427 41.8532 282.56 42.1999 282.827 42.5199C283.093 42.7866 283.547 42.9199 284.187 42.9199C286.053 42.9199 287.973 42.3599 289.947 41.2399C291.973 40.1199 293.92 38.7066 295.787 36.9999C297.707 35.2399 299.493 33.4266 301.147 31.5599C302.8 29.6399 304.24 27.9066 305.467 26.3599C306.747 24.7599 307.68 23.5866 308.267 22.8399C308.693 22.9466 309.387 22.9999 310.347 22.9999C311.36 22.9999 312.053 22.9732 312.427 22.9199C306.933 29.5332 302.107 35.6132 297.947 41.1599C293.84 46.6532 290.133 51.3732 286.827 55.3199C283.52 59.3199 280.373 62.4132 277.387 64.5999C274.347 66.7866 271.173 67.8799 267.867 67.8799C265.84 67.8799 264.827 67.0799 264.827 65.4799C264.827 64.3066 265.573 63.0799 267.067 61.7999C268.507 60.5199 270.453 59.1866 272.907 57.7999C275.36 56.4666 278.08 55.1332 281.067 53.7999C284.053 52.4666 287.093 51.1866 290.187 49.9599C294.24 48.3599 297.573 46.5999 300.187 44.6799C302.853 42.8132 305.173 40.7599 307.147 38.5199C309.173 36.2799 311.227 33.8266 313.307 31.1599L313.947 31.5599C311.813 34.2799 309.707 36.7866 307.627 39.0799C305.547 41.3199 303.173 43.3999 300.507 45.3199C297.84 47.2399 294.48 49.0266 290.427 50.6799C287.387 51.9066 284.427 53.1599 281.547 54.4399C278.613 55.7732 275.973 57.0532 273.627 58.2799C271.227 59.5599 269.333 60.8132 267.947 62.0399C266.507 63.2666 265.787 64.4132 265.787 65.4799C265.787 66.1199 266 66.5199 266.427 66.6799C266.853 66.8932 267.413 66.9999 268.107 66.9999C269.76 66.9999 271.547 66.3599 273.467 65.0799C275.333 63.7999 277.307 62.0666 279.387 59.8799C281.467 57.6932 283.573 55.2132 285.707 52.4399C287.893 49.7199 290.107 46.8932 292.347 43.9599C294.587 41.0266 296.853 38.1732 299.147 35.3999L298.827 35.2399C298.72 35.3999 298.347 35.7999 297.707 36.4399C297.067 37.0799 296.24 37.7999 295.227 38.5999C294.213 39.3999 293.067 40.1999 291.787 40.9999C290.507 41.7999 289.147 42.4666 287.707 42.9999C286.32 43.4799 284.907 43.7199 283.467 43.7199C282.453 43.7199 281.68 43.4799 281.147 42.9999C280.56 42.5732 280.267 41.9599 280.267 41.1599C280.267 39.8799 280.693 38.4399 281.547 36.8399C282.4 35.1866 283.52 33.5066 284.907 31.7999C286.24 30.0932 287.653 28.4399 289.147 26.8399C290.64 25.2399 292 23.8532 293.227 22.6799Z" fill="white"/>
<path d="M8.01262 43.7199C6.51929 43.7199 5.13262 43.5332 3.85262 43.1599C2.57262 42.8399 1.93262 42.2799 1.93262 41.4799C1.93262 40.9466 2.22595 40.4666 2.81262 40.0399C3.45262 39.6132 4.19929 39.2932 5.05262 39.0799C5.95929 38.8132 6.75929 38.6799 7.45262 38.6799C9.74595 38.6799 11.9593 39.0266 14.0926 39.7199C16.2259 40.3599 18.4126 41.0266 20.6526 41.7199C22.9459 42.3599 25.3993 42.6799 28.0126 42.6799C31.2126 42.6799 34.2793 42.0132 37.2126 40.6799C40.1459 39.3466 42.7593 37.5332 45.0526 35.2399C47.3459 32.9466 49.1326 30.3599 50.4126 27.4799C51.7459 24.5466 52.4126 21.5066 52.4126 18.3599C52.4126 14.9999 51.8259 12.0666 50.6526 9.55992C49.5326 7.05325 47.7193 5.10658 45.2126 3.71992C42.7593 2.33325 39.5593 1.63992 35.6126 1.63992C32.6259 1.63992 29.7193 2.25325 26.8926 3.47992C24.0659 4.65325 21.5326 6.19992 19.2926 8.11992C17.0526 9.98658 15.2659 12.0132 13.9326 14.1999C12.5993 16.3866 11.9326 18.4399 11.9326 20.3599C11.9326 21.3732 12.3326 22.4132 13.1326 23.4799C13.9326 24.5466 15.3193 25.0799 17.2926 25.0799C19.1593 25.0799 21.1859 24.5999 23.3726 23.6399C25.5593 22.6266 27.6393 21.2932 29.6126 19.6399C31.6393 17.9332 33.3726 16.0399 34.8126 13.9599C36.2526 11.8266 37.1326 9.63992 37.4526 7.39992C37.5593 6.70658 37.7193 6.38658 37.9326 6.43992C38.1459 6.49325 38.2526 6.81325 38.2526 7.39992C38.2526 9.69325 37.6659 11.9599 36.4926 14.1999C35.3193 16.3866 33.7726 18.3599 31.8526 20.1199C29.9326 21.8799 27.7993 23.2932 25.4526 24.3599C23.1593 25.4266 20.8393 25.9599 18.4926 25.9599C16.4126 25.9599 14.7593 25.6132 13.5326 24.9199C12.3059 24.2266 11.4259 23.3732 10.8926 22.3599C10.3593 21.2932 10.0926 20.2532 10.0926 19.2399C10.0926 17.2132 10.7059 15.1332 11.9326 12.9999C13.2126 10.8132 14.9726 8.81325 17.2126 6.99992C19.5059 5.18658 22.1726 3.71992 25.2126 2.59992C28.3059 1.47992 31.6393 0.919922 35.2126 0.919922C38.5193 0.919922 41.3726 1.37325 43.7726 2.27992C46.1726 3.13325 48.1459 4.33325 49.6926 5.87992C51.2393 7.37325 52.3859 9.13325 53.1326 11.1599C53.9326 13.1332 54.3326 15.2399 54.3326 17.4799C54.3326 21.2132 53.6126 24.6799 52.1726 27.8799C50.7859 31.0266 48.8659 33.7732 46.4126 36.1199C43.9593 38.4666 41.1593 40.3066 38.0126 41.6399C34.8659 42.9199 31.5859 43.5599 28.1726 43.5599C25.6659 43.5599 23.3193 43.2666 21.1326 42.6799C18.9459 42.0932 16.8126 41.5332 14.7326 40.9999C12.7059 40.4132 10.5459 40.1199 8.25262 40.1199C7.77262 40.1199 7.07929 40.1466 6.17262 40.1999C5.31929 40.2532 4.54595 40.3866 3.85262 40.5999C3.15929 40.7599 2.81262 41.0532 2.81262 41.4799C2.81262 41.8532 3.13262 42.1466 3.77262 42.3599C4.41262 42.5732 5.15929 42.7066 6.01262 42.7599C6.86595 42.8132 7.55929 42.8399 8.09262 42.8399C10.5459 42.8399 12.8926 42.3866 15.1326 41.4799C17.3726 40.5199 19.5326 39.2132 21.6126 37.5599C23.6926 35.9066 25.6659 34.0399 27.5326 31.9599C29.4526 29.8266 31.2926 27.5866 33.0526 25.2399C35.2926 22.1999 37.6926 19.3199 40.2526 16.5999C42.8126 13.8799 45.4259 11.4799 48.0926 9.39992C50.7593 7.26659 53.3726 5.61325 55.9326 4.43992C58.4926 3.21325 60.8926 2.59992 63.1326 2.59992C63.8259 2.59992 64.0926 2.73325 63.9326 2.99992C63.7726 3.21325 63.4793 3.31992 63.0526 3.31992C61.2393 3.31992 59.2926 3.93325 57.2126 5.15992C55.1326 6.38659 52.9993 8.03992 50.8126 10.1199C48.6793 12.1999 46.6259 14.4932 44.6526 16.9999C42.6793 19.5066 40.8926 22.0399 39.2926 24.5999C37.9593 26.7332 36.3059 28.9199 34.3326 31.1599C32.3593 33.3999 30.0659 35.4799 27.4526 37.3999C24.8393 39.2666 21.9059 40.7866 18.6526 41.9599C15.3993 43.1332 11.8526 43.7199 8.01262 43.7199ZM61.3382 43.7199C58.8316 43.7199 57.1782 43.1599 56.3782 42.0399C55.5782 40.8666 55.1782 39.6399 55.1782 38.3599C55.1782 36.1732 55.7382 34.1466 56.8582 32.2799C57.9782 30.3599 59.4182 28.6532 61.1782 27.1599C62.9382 25.6666 64.7516 24.5199 66.6182 23.7199C68.5382 22.8666 70.2449 22.4399 71.7382 22.4399C72.8049 22.4399 73.6582 22.5999 74.2982 22.9199C74.9382 23.1866 75.2582 23.7732 75.2582 24.6799C75.2582 25.5332 74.7516 26.4399 73.7382 27.3999C72.7249 28.3599 71.4449 29.2932 69.8982 30.1999C68.3516 31.0532 66.7249 31.8532 65.0182 32.5999C63.3649 33.2932 61.8449 33.8532 60.4582 34.2799C59.0716 34.7066 58.0582 34.9199 57.4182 34.9199C57.4182 34.9199 57.4182 34.7866 57.4182 34.5199C57.4182 34.1999 57.4182 34.0399 57.4182 34.0399C57.8982 34.0932 58.7249 33.9332 59.8982 33.5599C61.1249 33.1866 62.4849 32.7066 63.9782 32.1199C65.4716 31.4799 66.9116 30.7599 68.2982 29.9599C69.7382 29.1599 70.9116 28.3066 71.8182 27.3999C72.7782 26.4932 73.2582 25.6132 73.2582 24.7599C73.2582 24.3332 73.1249 23.9599 72.8582 23.6399C72.6449 23.3199 72.2449 23.1599 71.6582 23.1599C70.8049 23.1599 69.7649 23.5866 68.5382 24.4399C67.3649 25.2399 66.1649 26.3066 64.9382 27.6399C63.7116 28.9732 62.5649 30.3866 61.4982 31.8799C60.4316 33.3732 59.5516 34.8132 58.8582 36.1999C58.2182 37.5332 57.8982 38.6532 57.8982 39.5599C57.8982 40.6266 58.2182 41.4266 58.8582 41.9599C59.4982 42.4932 60.4316 42.7599 61.6582 42.7599C63.7916 42.7599 65.7916 42.2532 67.6582 41.2399C69.5782 40.1732 71.3116 38.9466 72.8582 37.5599C74.4049 36.1199 75.7116 34.7866 76.7782 33.5599C77.8449 32.2799 78.5649 31.4532 78.9382 31.0799C78.9382 31.0799 79.0182 31.1599 79.1782 31.3199C79.3916 31.4799 79.4982 31.5599 79.4982 31.5599C79.1249 31.9866 78.4049 32.8399 77.3382 34.1199C76.2716 35.3999 74.9382 36.7866 73.3382 38.2799C71.7382 39.7732 69.9249 41.0532 67.8982 42.1199C65.8716 43.1866 63.6849 43.7199 61.3382 43.7199ZM96.1901 28.9999C95.9768 29.4266 95.6568 29.7999 95.2301 30.1199C94.8568 30.4399 94.5634 30.6532 94.3501 30.7599C94.1901 30.8132 94.2434 30.6532 94.5101 30.2799C95.4701 29.1066 96.0834 28.0132 96.3501 26.9999C96.6701 25.9866 96.6701 25.1866 96.3501 24.5999C96.0834 23.9599 95.5501 23.6399 94.7501 23.6399C93.6834 23.6399 92.4301 24.0666 90.9901 24.9199C89.5501 25.7732 88.0568 26.8932 86.5101 28.2799C85.0168 29.6666 83.6034 31.1599 82.2701 32.7599C80.9901 34.3066 79.9501 35.8266 79.1501 37.3199C78.3501 38.7599 77.9501 40.0132 77.9501 41.0799C77.9501 41.8799 78.1101 42.3866 78.4301 42.5999C78.7501 42.8132 79.0701 42.9199 79.3901 42.9199C80.6168 42.9199 82.0301 42.3599 83.6301 41.2399C85.2834 40.0666 86.9634 38.5999 88.6701 36.8399C90.3768 35.0799 92.0034 33.2932 93.5501 31.4799C95.0968 29.6132 96.4301 27.9332 97.5501 26.4399C98.7234 24.9466 99.5234 23.9332 99.9501 23.3999C100.537 23.6132 101.23 23.6932 102.03 23.6399C102.883 23.5866 103.603 23.5332 104.19 23.4799C104.083 23.6399 103.523 24.3066 102.51 25.4799C101.55 26.6532 100.377 28.0666 98.9901 29.7199C97.6568 31.3199 96.2968 32.9732 94.9101 34.6799C93.5768 36.3866 92.4568 37.8799 91.5501 39.1599C90.6434 40.4399 90.1901 41.2932 90.1901 41.7199C90.1901 42.2532 90.2968 42.5999 90.5101 42.7599C90.7768 42.8666 91.1768 42.9199 91.7101 42.9199C92.3501 42.8666 93.2834 42.5732 94.5101 42.0399C95.7368 41.4532 97.3101 40.3332 99.2301 38.6799C101.15 37.0266 103.47 34.5732 106.19 31.3199C106.19 31.3199 106.297 31.3999 106.51 31.5599C106.777 31.7199 106.91 31.7999 106.91 31.7999C103.71 35.5332 100.75 38.4666 98.0301 40.5999C95.3101 42.6799 92.8301 43.7199 90.5901 43.7199C89.4168 43.7199 88.6168 43.5332 88.1901 43.1599C87.8168 42.7866 87.6301 42.2532 87.6301 41.5599C87.6301 41.0266 87.8434 40.3866 88.2701 39.6399C88.7501 38.8399 89.2834 38.0666 89.8701 37.3199C90.4568 36.5732 90.9368 35.9866 91.3101 35.5599C91.3101 35.5599 91.2568 35.5332 91.1501 35.4799C91.0434 35.4266 90.9901 35.3999 90.9901 35.3999C89.7634 36.8932 88.4568 38.2799 87.0701 39.5599C85.6834 40.8399 84.2968 41.8532 82.9101 42.5999C81.5768 43.3466 80.2701 43.7199 78.9901 43.7199C77.6568 43.7199 76.7234 43.3999 76.1901 42.7599C75.6568 42.0666 75.3901 41.0266 75.3901 39.6399C75.3901 38.3066 75.8168 36.7066 76.6701 34.8399C77.5234 32.9199 78.7501 31.0532 80.3501 29.2399C81.9501 27.3732 83.8701 25.8266 86.1101 24.5999C88.4034 23.3732 90.9634 22.7599 93.7901 22.7599C95.1768 22.7599 96.1368 23.0266 96.6701 23.5599C97.2034 24.0399 97.4434 24.6266 97.3901 25.3199C97.3368 26.0132 97.1768 26.7066 96.9101 27.3999C96.6434 28.0932 96.4034 28.6266 96.1901 28.9999ZM106.172 32.5199C105.959 32.7332 105.799 32.7599 105.692 32.5999C105.585 32.3866 105.559 32.1732 105.612 31.9599C106.519 31.0532 107.399 29.9866 108.252 28.7599C109.159 27.5332 109.905 26.3866 110.492 25.3199C111.132 24.2532 111.505 23.5332 111.612 23.1599C111.719 23.1599 111.879 23.0799 112.092 22.9199C112.359 22.7599 112.599 22.7066 112.812 22.7599C112.759 23.1332 112.679 23.4799 112.572 23.7999C112.519 24.1199 112.705 24.4132 113.132 24.6799C113.559 24.9466 114.439 25.2132 115.772 25.4799C117.105 25.7466 119.132 26.0399 121.852 26.3599C122.119 26.4132 122.305 26.5199 122.412 26.6799C122.572 26.7866 122.492 26.9732 122.172 27.2399C121.159 28.0399 120.039 29.0532 118.812 30.2799C117.585 31.5066 116.385 32.8132 115.212 34.1999C114.092 35.5332 113.159 36.8399 112.412 38.1199C111.719 39.3999 111.372 40.4666 111.372 41.3199C111.372 42.2799 111.799 42.7599 112.652 42.7599C113.719 42.7599 114.919 42.3332 116.252 41.4799C117.639 40.6266 119.025 39.5866 120.412 38.3599C121.799 37.0799 123.079 35.7999 124.252 34.5199C125.479 33.1866 126.492 32.0932 127.292 31.2399L127.932 31.7199C127.185 32.4666 126.225 33.5066 125.052 34.8399C123.879 36.1732 122.545 37.5332 121.052 38.9199C119.612 40.2532 118.065 41.3999 116.412 42.3599C114.759 43.2666 113.052 43.7199 111.292 43.7199C110.279 43.7199 109.372 43.4799 108.572 42.9999C107.772 42.5732 107.372 41.7732 107.372 40.5999C107.372 39.4799 107.852 38.3066 108.812 37.0799C109.772 35.8532 110.972 34.6266 112.412 33.3999C113.852 32.1199 115.345 30.9199 116.892 29.7999C118.492 28.6266 119.905 27.5599 121.132 26.5999L121.692 27.3199C121.159 27.1066 120.225 26.9199 118.892 26.7599C117.559 26.5466 116.172 26.2799 114.732 25.9599C113.292 25.5866 112.039 25.1066 110.972 24.5199C109.959 23.9332 109.452 23.1332 109.452 22.1199C109.452 21.5866 109.665 20.9466 110.092 20.1999C110.572 19.3999 111.212 18.9999 112.012 18.9999C112.759 18.9999 113.265 19.1599 113.532 19.4799C113.799 19.7466 113.932 20.1199 113.932 20.5999C113.932 20.9199 113.665 21.5866 113.132 22.5999C112.599 23.5599 111.932 24.7066 111.132 26.0399C110.332 27.3199 109.479 28.5466 108.572 29.7199C107.719 30.8932 106.919 31.8266 106.172 32.5199Z" fill="white"/>
<mask id="mask0_6056_2" style="mask-type:luminance" maskUnits="userSpaceOnUse" x="125" y="11" width="42" height="42">
<path d="M167 11H125V53H167V11Z" fill="white"/>
</mask>
<g mask="url(#mask0_6056_2)">
<path d="M131.563 11C129.391 11 127.625 12.8431 127.625 15.1087V48.8913C127.625 51.1569 129.391 53 131.563 53H138.125V11H131.563Z" fill="white"/>
<path d="M162.831 11H135.5V53H162.831C165.13 53 167 51.1569 167 48.8913V15.1087C167 12.8431 165.13 11 162.831 11Z" fill="#C3A5A6"/>
<path d="M162.831 11H151.25V53H162.831C165.13 53 167 51.1569 167 48.8913V15.1087C167 12.8431 165.13 11 162.831 11Z" fill="#C27A88"/>
<path d="M131.848 21.0434H126.37C125.614 21.0434 125 20.4304 125 19.6738C125 18.9172 125.614 18.3042 126.37 18.3042H131.848C132.604 18.3042 133.217 18.9172 133.217 19.6738C133.217 20.4304 132.604 21.0434 131.848 21.0434Z" fill="#E8D4CE"/>
<path d="M131.848 29.2609H126.37C125.614 29.2609 125 28.6479 125 27.8913C125 27.1347 125.614 26.5217 126.37 26.5217H131.848C132.604 26.5217 133.217 27.1347 133.217 27.8913C133.217 28.6479 132.604 29.2609 131.848 29.2609Z" fill="#E8D4CE"/>
<path d="M131.848 37.4782H126.37C125.614 37.4782 125 36.8652 125 36.1086C125 35.3521 125.614 34.739 126.37 34.739H131.848C132.604 34.739 133.217 35.3521 133.217 36.1086C133.217 36.8652 132.604 37.4782 131.848 37.4782Z" fill="#E8D4CE"/>
<path d="M131.848 45.6957H126.37C125.614 45.6957 125 45.0827 125 44.3261C125 43.5696 125.614 42.9565 126.37 42.9565H131.848C132.604 42.9565 133.217 43.5696 133.217 44.3261C133.217 45.0827 132.604 45.6957 131.848 45.6957Z" fill="#E8D4CE"/>
<path d="M160.318 21.5H142.182C141.391 21.5 140.75 20.9125 140.75 20.1875C140.75 19.4625 141.391 18.875 142.182 18.875H160.318C161.109 18.875 161.75 19.4625 161.75 20.1875C161.75 20.9125 161.109 21.5 160.318 21.5Z" fill="#EDEEDB"/>
<path d="M160.318 18.875H151.25V21.5H160.318C161.109 21.5 161.75 20.9125 161.75 20.1875C161.75 19.4624 161.109 18.875 160.318 18.875Z" fill="white"/>
<path d="M151.25 45.125C150.919 45.125 150.588 45.008 150.32 44.7744C149.216 43.8093 148.183 42.956 147.239 42.176C143.472 39.0631 140.75 36.8138 140.75 33.1693C140.75 29.5697 143.37 26.75 146.714 26.75C148.89 26.75 150.334 27.8885 151.25 29.0826C152.166 27.8885 153.61 26.75 155.786 26.75C159.13 26.75 161.75 29.5698 161.75 33.1693C161.75 36.8139 159.028 39.0631 155.261 42.176C154.317 42.956 153.284 43.8093 152.18 44.7744C151.912 45.0079 151.581 45.125 151.25 45.125Z" fill="#EDEEDB"/>
<path d="M152.18 44.7743C153.284 43.8092 154.317 42.9558 155.261 42.1759C159.028 39.063 161.75 36.8137 161.75 33.1692C161.75 29.5696 159.13 26.75 155.786 26.75C153.61 26.75 152.166 27.8885 151.25 29.0826V45.125C151.581 45.125 151.912 45.0079 152.18 44.7743Z" fill="white"/>
</g>
</svg>
