<svg width="314" height="68" viewBox="0 0 314 68" fill="none" xmlns="http://www.w3.org/2000/svg">
<path d="M172.927 43.72C171.433 43.72 170.047 43.5333 168.767 43.16C167.487 42.84 166.847 42.28 166.847 41.48C166.847 40.9467 167.14 40.4667 167.727 40.04C168.367 39.6133 169.113 39.2933 169.967 39.08C170.873 38.8133 171.673 38.68 172.367 38.68C174.66 38.68 176.873 39.0267 179.007 39.72C181.14 40.36 183.327 41.0267 185.567 41.72C187.86 42.36 190.313 42.68 192.927 42.68C196.127 42.68 199.193 42.0133 202.127 40.68C205.06 39.3467 207.673 37.5333 209.967 35.24C212.26 32.9467 214.047 30.36 215.327 27.48C216.66 24.5467 217.327 21.5067 217.327 18.36C217.327 15 216.74 12.0667 215.567 9.56C214.447 7.05333 212.633 5.10666 210.127 3.72C207.673 2.33333 204.473 1.64 200.527 1.64C197.54 1.64 194.633 2.25333 191.807 3.48C188.98 4.65333 186.447 6.2 184.207 8.12C181.967 9.98666 180.18 12.0133 178.847 14.2C177.513 16.3867 176.847 18.44 176.847 20.36C176.847 21.3733 177.247 22.4133 178.047 23.48C178.847 24.5467 180.233 25.08 182.207 25.08C184.073 25.08 186.1 24.6 188.287 23.64C190.473 22.6267 192.553 21.2933 194.527 19.64C196.553 17.9333 198.287 16.04 199.727 13.96C201.167 11.8267 202.047 9.64 202.367 7.4C202.473 6.70666 202.633 6.38666 202.847 6.44C203.06 6.49333 203.167 6.81333 203.167 7.4C203.167 9.69333 202.58 11.96 201.407 14.2C200.233 16.3867 198.687 18.36 196.767 20.12C194.847 21.88 192.713 23.2933 190.367 24.36C188.073 25.4267 185.753 25.96 183.407 25.96C181.327 25.96 179.673 25.6133 178.447 24.92C177.22 24.2267 176.34 23.3733 175.807 22.36C175.273 21.2933 175.007 20.2533 175.007 19.24C175.007 17.2133 175.62 15.1333 176.847 13C178.127 10.8133 179.887 8.81333 182.127 7C184.42 5.18666 187.087 3.72 190.127 2.6C193.22 1.48 196.553 0.919998 200.127 0.919998C203.433 0.919998 206.287 1.37333 208.687 2.28C211.087 3.13333 213.06 4.33333 214.607 5.88C216.153 7.37333 217.3 9.13333 218.047 11.16C218.847 13.1333 219.247 15.24 219.247 17.48C219.247 21.2133 218.527 24.68 217.087 27.88C215.7 31.0267 213.78 33.7733 211.327 36.12C208.873 38.4667 206.073 40.3067 202.927 41.64C199.78 42.92 196.5 43.56 193.087 43.56C190.58 43.56 188.233 43.2667 186.047 42.68C183.86 42.0933 181.727 41.5333 179.647 41C177.62 40.4133 175.46 40.12 173.167 40.12C172.687 40.12 171.993 40.1467 171.087 40.2C170.233 40.2533 169.46 40.3867 168.767 40.6C168.073 40.76 167.727 41.0533 167.727 41.48C167.727 41.8533 168.047 42.1467 168.687 42.36C169.327 42.5733 170.073 42.7067 170.927 42.76C171.78 42.8133 172.473 42.84 173.007 42.84C175.46 42.84 177.807 42.3867 180.047 41.48C182.287 40.52 184.447 39.2133 186.527 37.56C188.607 35.9067 190.58 34.04 192.447 31.96C194.367 29.8267 196.207 27.5867 197.967 25.24C200.207 22.2 202.607 19.32 205.167 16.6C207.727 13.88 210.34 11.48 213.007 9.4C215.673 7.26667 218.287 5.61333 220.847 4.44C223.407 3.21333 225.807 2.6 228.047 2.6C228.74 2.6 229.007 2.73333 228.847 3C228.687 3.21333 228.393 3.32 227.967 3.32C226.153 3.32 224.207 3.93333 222.127 5.16C220.047 6.38667 217.913 8.04 215.727 10.12C213.593 12.2 211.54 14.4933 209.567 17C207.593 19.5067 205.807 22.04 204.207 24.6C202.873 26.7333 201.22 28.92 199.247 31.16C197.273 33.4 194.98 35.48 192.367 37.4C189.753 39.2667 186.82 40.7867 183.567 41.96C180.313 43.1333 176.767 43.72 172.927 43.72ZM220.892 43.72C220.146 43.72 219.319 43.5067 218.412 43.08C217.452 42.7067 216.972 42.0667 216.972 41.16C216.972 40.04 217.479 38.6267 218.492 36.92C219.506 35.2133 220.759 33.4533 222.252 31.64C223.692 29.8267 225.106 28.12 226.492 26.52C227.879 24.92 228.919 23.6667 229.612 22.76C230.199 22.8133 230.892 22.84 231.692 22.84C232.546 22.84 233.292 22.8133 233.932 22.76C233.186 23.6667 232.199 24.8133 230.972 26.2C229.799 27.5867 228.546 29.08 227.212 30.68C225.932 32.2267 224.679 33.7467 223.452 35.24C222.279 36.7333 221.319 38.0667 220.572 39.24C219.826 40.4133 219.452 41.2667 219.452 41.8C219.452 42.1733 219.612 42.44 219.932 42.6C220.252 42.76 220.786 42.84 221.532 42.84C222.812 42.84 224.226 42.36 225.772 41.4C227.372 40.3867 228.919 39.1867 230.412 37.8C231.906 36.4133 233.239 35.1067 234.412 33.88C235.586 32.6 236.412 31.6667 236.892 31.08L237.532 31.64C237.052 32.1733 236.226 33.1067 235.052 34.44C233.932 35.72 232.572 37.08 230.972 38.52C229.426 39.96 227.772 41.1867 226.012 42.2C224.306 43.2133 222.599 43.72 220.892 43.72ZM236.892 16.68C236.252 16.68 235.772 16.4933 235.452 16.12C235.132 15.6933 234.972 15.2133 234.972 14.68C234.972 14.0933 235.292 13.48 235.932 12.84C236.572 12.2 237.239 11.88 237.932 11.88C238.679 11.88 239.212 12.0933 239.532 12.52C239.852 12.8933 240.012 13.2667 240.012 13.64C240.012 14.44 239.692 15.16 239.052 15.8C238.412 16.3867 237.692 16.68 236.892 16.68ZM254.229 29C254.016 29.4267 253.696 29.8 253.269 30.12C252.896 30.44 252.602 30.6533 252.389 30.76C252.229 30.8133 252.282 30.6533 252.549 30.28C253.509 29.1067 254.122 28.0133 254.389 27C254.709 25.9867 254.709 25.1867 254.389 24.6C254.122 23.96 253.589 23.64 252.789 23.64C251.722 23.64 250.469 24.0667 249.029 24.92C247.589 25.7733 246.096 26.8933 244.549 28.28C243.056 29.6667 241.642 31.16 240.309 32.76C239.029 34.3067 237.989 35.8267 237.189 37.32C236.389 38.76 235.989 40.0133 235.989 41.08C235.989 41.88 236.149 42.3867 236.469 42.6C236.789 42.8133 237.109 42.92 237.429 42.92C238.656 42.92 240.069 42.36 241.669 41.24C243.322 40.0667 245.002 38.6 246.709 36.84C248.416 35.08 250.042 33.2933 251.589 31.48C253.136 29.6133 254.469 27.9333 255.589 26.44C256.762 24.9467 257.562 23.9333 257.989 23.4C258.576 23.6133 259.269 23.6933 260.069 23.64C260.922 23.5867 261.642 23.5333 262.229 23.48C262.122 23.64 261.562 24.3067 260.549 25.48C259.589 26.6533 258.416 28.0667 257.029 29.72C255.696 31.32 254.336 32.9733 252.949 34.68C251.616 36.3867 250.496 37.88 249.589 39.16C248.682 40.44 248.229 41.2933 248.229 41.72C248.229 42.2533 248.336 42.6 248.549 42.76C248.816 42.8667 249.216 42.92 249.749 42.92C250.389 42.8667 251.322 42.5733 252.549 42.04C253.776 41.4533 255.349 40.3333 257.269 38.68C259.189 37.0267 261.509 34.5733 264.229 31.32C264.229 31.32 264.336 31.4 264.549 31.56C264.816 31.72 264.949 31.8 264.949 31.8C261.749 35.5333 258.789 38.4667 256.069 40.6C253.349 42.68 250.869 43.72 248.629 43.72C247.456 43.72 246.656 43.5333 246.229 43.16C245.856 42.7867 245.669 42.2533 245.669 41.56C245.669 41.0267 245.882 40.3867 246.309 39.64C246.789 38.84 247.322 38.0667 247.909 37.32C248.496 36.5733 248.976 35.9867 249.349 35.56C249.349 35.56 249.296 35.5333 249.189 35.48C249.082 35.4267 249.029 35.4 249.029 35.4C247.802 36.8933 246.496 38.28 245.109 39.56C243.722 40.84 242.336 41.8533 240.949 42.6C239.616 43.3467 238.309 43.72 237.029 43.72C235.696 43.72 234.762 43.4 234.229 42.76C233.696 42.0667 233.429 41.0267 233.429 39.64C233.429 38.3067 233.856 36.7067 234.709 34.84C235.562 32.92 236.789 31.0533 238.389 29.24C239.989 27.3733 241.909 25.8267 244.149 24.6C246.442 23.3733 249.002 22.76 251.829 22.76C253.216 22.76 254.176 23.0267 254.709 23.56C255.242 24.04 255.482 24.6267 255.429 25.32C255.376 26.0133 255.216 26.7067 254.949 27.4C254.682 28.0933 254.442 28.6267 254.229 29ZM264.211 32.52C263.998 32.7333 263.838 32.76 263.731 32.6C263.624 32.3867 263.598 32.1733 263.651 31.96C264.558 31.0533 265.438 29.9867 266.291 28.76C267.198 27.5333 267.944 26.3867 268.531 25.32C269.171 24.2533 269.544 23.5333 269.651 23.16C269.758 23.16 269.918 23.08 270.131 22.92C270.398 22.76 270.638 22.7067 270.851 22.76C270.798 23.1333 270.718 23.48 270.611 23.8C270.558 24.12 270.744 24.4133 271.171 24.68C271.598 24.9467 272.478 25.2133 273.811 25.48C275.144 25.7467 277.171 26.04 279.891 26.36C280.158 26.4133 280.344 26.52 280.451 26.68C280.611 26.7867 280.531 26.9733 280.211 27.24C279.198 28.04 278.078 29.0533 276.851 30.28C275.624 31.5067 274.424 32.8133 273.251 34.2C272.131 35.5333 271.198 36.84 270.451 38.12C269.758 39.4 269.411 40.4667 269.411 41.32C269.411 42.28 269.838 42.76 270.691 42.76C271.758 42.76 272.958 42.3333 274.291 41.48C275.678 40.6267 277.064 39.5867 278.451 38.36C279.838 37.08 281.118 35.8 282.291 34.52C283.518 33.1867 284.531 32.0933 285.331 31.24L285.971 31.72C285.224 32.4667 284.264 33.5067 283.091 34.84C281.918 36.1733 280.584 37.5333 279.091 38.92C277.651 40.2533 276.104 41.4 274.451 42.36C272.798 43.2667 271.091 43.72 269.331 43.72C268.318 43.72 267.411 43.48 266.611 43C265.811 42.5733 265.411 41.7733 265.411 40.6C265.411 39.48 265.891 38.3067 266.851 37.08C267.811 35.8533 269.011 34.6267 270.451 33.4C271.891 32.12 273.384 30.92 274.931 29.8C276.531 28.6267 277.944 27.56 279.171 26.6L279.731 27.32C279.198 27.1067 278.264 26.92 276.931 26.76C275.598 26.5467 274.211 26.28 272.771 25.96C271.331 25.5867 270.078 25.1067 269.011 24.52C267.998 23.9333 267.491 23.1333 267.491 22.12C267.491 21.5867 267.704 20.9467 268.131 20.2C268.611 19.4 269.251 19 270.051 19C270.798 19 271.304 19.16 271.571 19.48C271.838 19.7467 271.971 20.12 271.971 20.6C271.971 20.92 271.704 21.5867 271.171 22.6C270.638 23.56 269.971 24.7067 269.171 26.04C268.371 27.32 267.518 28.5467 266.611 29.72C265.758 30.8933 264.958 31.8267 264.211 32.52ZM293.227 22.68C293.973 22.8933 294.747 23 295.547 23C296.347 22.9467 297.173 22.8933 298.027 22.84C296.587 24.2267 294.96 25.88 293.147 27.8C291.387 29.6667 289.68 31.56 288.027 33.48C286.427 35.3467 285.093 37.0267 284.027 38.52C282.96 39.96 282.427 40.9467 282.427 41.48C282.427 41.8533 282.56 42.2 282.827 42.52C283.093 42.7867 283.547 42.92 284.187 42.92C286.053 42.92 287.973 42.36 289.947 41.24C291.973 40.12 293.92 38.7067 295.787 37C297.707 35.24 299.493 33.4267 301.147 31.56C302.8 29.64 304.24 27.9067 305.467 26.36C306.747 24.76 307.68 23.5867 308.267 22.84C308.693 22.9467 309.387 23 310.347 23C311.36 23 312.053 22.9733 312.427 22.92C306.933 29.5333 302.107 35.6133 297.947 41.16C293.84 46.6533 290.133 51.3733 286.827 55.32C283.52 59.32 280.373 62.4133 277.387 64.6C274.347 66.7867 271.173 67.88 267.867 67.88C265.84 67.88 264.827 67.08 264.827 65.48C264.827 64.3067 265.573 63.08 267.067 61.8C268.507 60.52 270.453 59.1867 272.907 57.8C275.36 56.4667 278.08 55.1333 281.067 53.8C284.053 52.4667 287.093 51.1867 290.187 49.96C294.24 48.36 297.573 46.6 300.187 44.68C302.853 42.8133 305.173 40.76 307.147 38.52C309.173 36.28 311.227 33.8267 313.307 31.16L313.947 31.56C311.813 34.28 309.707 36.7867 307.627 39.08C305.547 41.32 303.173 43.4 300.507 45.32C297.84 47.24 294.48 49.0267 290.427 50.68C287.387 51.9067 284.427 53.16 281.547 54.44C278.613 55.7733 275.973 57.0533 273.627 58.28C271.227 59.56 269.333 60.8133 267.947 62.04C266.507 63.2667 265.787 64.4133 265.787 65.48C265.787 66.12 266 66.52 266.427 66.68C266.853 66.8933 267.413 67 268.107 67C269.76 67 271.547 66.36 273.467 65.08C275.333 63.8 277.307 62.0667 279.387 59.88C281.467 57.6933 283.573 55.2133 285.707 52.44C287.893 49.72 290.107 46.8933 292.347 43.96C294.587 41.0267 296.853 38.1733 299.147 35.4L298.827 35.24C298.72 35.4 298.347 35.8 297.707 36.44C297.067 37.08 296.24 37.8 295.227 38.6C294.213 39.4 293.067 40.2 291.787 41C290.507 41.8 289.147 42.4667 287.707 43C286.32 43.48 284.907 43.72 283.467 43.72C282.453 43.72 281.68 43.48 281.147 43C280.56 42.5733 280.267 41.96 280.267 41.16C280.267 39.88 280.693 38.44 281.547 36.84C282.4 35.1867 283.52 33.5067 284.907 31.8C286.24 30.0933 287.653 28.44 289.147 26.84C290.64 25.24 292 23.8533 293.227 22.68Z" fill="#A4A684"/>
<path d="M8.0125 43.72C6.51917 43.72 5.1325 43.5333 3.8525 43.16C2.5725 42.84 1.9325 42.28 1.9325 41.48C1.9325 40.9467 2.22583 40.4667 2.8125 40.04C3.4525 39.6133 4.19917 39.2933 5.0525 39.08C5.95917 38.8133 6.75917 38.68 7.4525 38.68C9.74583 38.68 11.9592 39.0267 14.0925 39.72C16.2258 40.36 18.4125 41.0267 20.6525 41.72C22.9458 42.36 25.3992 42.68 28.0125 42.68C31.2125 42.68 34.2792 42.0133 37.2125 40.68C40.1458 39.3467 42.7592 37.5333 45.0525 35.24C47.3458 32.9467 49.1325 30.36 50.4125 27.48C51.7458 24.5467 52.4125 21.5067 52.4125 18.36C52.4125 15 51.8258 12.0667 50.6525 9.56C49.5325 7.05333 47.7192 5.10666 45.2125 3.72C42.7592 2.33333 39.5592 1.64 35.6125 1.64C32.6258 1.64 29.7192 2.25333 26.8925 3.48C24.0658 4.65333 21.5325 6.2 19.2925 8.12C17.0525 9.98666 15.2658 12.0133 13.9325 14.2C12.5992 16.3867 11.9325 18.44 11.9325 20.36C11.9325 21.3733 12.3325 22.4133 13.1325 23.48C13.9325 24.5467 15.3192 25.08 17.2925 25.08C19.1592 25.08 21.1858 24.6 23.3725 23.64C25.5592 22.6267 27.6392 21.2933 29.6125 19.64C31.6392 17.9333 33.3725 16.04 34.8125 13.96C36.2525 11.8267 37.1325 9.64 37.4525 7.4C37.5592 6.70666 37.7192 6.38666 37.9325 6.44C38.1458 6.49333 38.2525 6.81333 38.2525 7.4C38.2525 9.69333 37.6658 11.96 36.4925 14.2C35.3192 16.3867 33.7725 18.36 31.8525 20.12C29.9325 21.88 27.7992 23.2933 25.4525 24.36C23.1592 25.4267 20.8392 25.96 18.4925 25.96C16.4125 25.96 14.7592 25.6133 13.5325 24.92C12.3058 24.2267 11.4258 23.3733 10.8925 22.36C10.3592 21.2933 10.0925 20.2533 10.0925 19.24C10.0925 17.2133 10.7058 15.1333 11.9325 13C13.2125 10.8133 14.9725 8.81333 17.2125 7C19.5058 5.18666 22.1725 3.72 25.2125 2.6C28.3058 1.48 31.6392 0.919998 35.2125 0.919998C38.5192 0.919998 41.3725 1.37333 43.7725 2.28C46.1725 3.13333 48.1458 4.33333 49.6925 5.88C51.2392 7.37333 52.3858 9.13333 53.1325 11.16C53.9325 13.1333 54.3325 15.24 54.3325 17.48C54.3325 21.2133 53.6125 24.68 52.1725 27.88C50.7858 31.0267 48.8658 33.7733 46.4125 36.12C43.9592 38.4667 41.1592 40.3067 38.0125 41.64C34.8658 42.92 31.5858 43.56 28.1725 43.56C25.6658 43.56 23.3192 43.2667 21.1325 42.68C18.9458 42.0933 16.8125 41.5333 14.7325 41C12.7058 40.4133 10.5458 40.12 8.2525 40.12C7.7725 40.12 7.07917 40.1467 6.1725 40.2C5.31917 40.2533 4.54583 40.3867 3.8525 40.6C3.15917 40.76 2.8125 41.0533 2.8125 41.48C2.8125 41.8533 3.1325 42.1467 3.7725 42.36C4.4125 42.5733 5.15917 42.7067 6.0125 42.76C6.86583 42.8133 7.55917 42.84 8.0925 42.84C10.5458 42.84 12.8925 42.3867 15.1325 41.48C17.3725 40.52 19.5325 39.2133 21.6125 37.56C23.6925 35.9067 25.6658 34.04 27.5325 31.96C29.4525 29.8267 31.2925 27.5867 33.0525 25.24C35.2925 22.2 37.6925 19.32 40.2525 16.6C42.8125 13.88 45.4258 11.48 48.0925 9.4C50.7592 7.26667 53.3725 5.61333 55.9325 4.44C58.4925 3.21333 60.8925 2.6 63.1325 2.6C63.8258 2.6 64.0925 2.73333 63.9325 3C63.7725 3.21333 63.4792 3.32 63.0525 3.32C61.2392 3.32 59.2925 3.93333 57.2125 5.16C55.1325 6.38667 52.9992 8.04 50.8125 10.12C48.6792 12.2 46.6258 14.4933 44.6525 17C42.6792 19.5067 40.8925 22.04 39.2925 24.6C37.9592 26.7333 36.3058 28.92 34.3325 31.16C32.3592 33.4 30.0658 35.48 27.4525 37.4C24.8392 39.2667 21.9058 40.7867 18.6525 41.96C15.3992 43.1333 11.8525 43.72 8.0125 43.72ZM61.3381 43.72C58.8315 43.72 57.1781 43.16 56.3781 42.04C55.5781 40.8667 55.1781 39.64 55.1781 38.36C55.1781 36.1733 55.7381 34.1467 56.8581 32.28C57.9781 30.36 59.4181 28.6533 61.1781 27.16C62.9381 25.6667 64.7515 24.52 66.6181 23.72C68.5381 22.8667 70.2448 22.44 71.7381 22.44C72.8048 22.44 73.6581 22.6 74.2981 22.92C74.9381 23.1867 75.2581 23.7733 75.2581 24.68C75.2581 25.5333 74.7515 26.44 73.7381 27.4C72.7248 28.36 71.4448 29.2933 69.8981 30.2C68.3515 31.0533 66.7248 31.8533 65.0181 32.6C63.3648 33.2933 61.8448 33.8533 60.4581 34.28C59.0715 34.7067 58.0581 34.92 57.4181 34.92C57.4181 34.92 57.4181 34.7867 57.4181 34.52C57.4181 34.2 57.4181 34.04 57.4181 34.04C57.8981 34.0933 58.7248 33.9333 59.8981 33.56C61.1248 33.1867 62.4848 32.7067 63.9781 32.12C65.4715 31.48 66.9115 30.76 68.2981 29.96C69.7381 29.16 70.9115 28.3067 71.8181 27.4C72.7781 26.4933 73.2581 25.6133 73.2581 24.76C73.2581 24.3333 73.1248 23.96 72.8581 23.64C72.6448 23.32 72.2448 23.16 71.6581 23.16C70.8048 23.16 69.7648 23.5867 68.5381 24.44C67.3648 25.24 66.1648 26.3067 64.9381 27.64C63.7115 28.9733 62.5648 30.3867 61.4981 31.88C60.4315 33.3733 59.5515 34.8133 58.8581 36.2C58.2181 37.5333 57.8981 38.6533 57.8981 39.56C57.8981 40.6267 58.2181 41.4267 58.8581 41.96C59.4981 42.4933 60.4315 42.76 61.6581 42.76C63.7915 42.76 65.7915 42.2533 67.6581 41.24C69.5781 40.1733 71.3115 38.9467 72.8581 37.56C74.4048 36.12 75.7115 34.7867 76.7781 33.56C77.8448 32.28 78.5648 31.4533 78.9381 31.08C78.9381 31.08 79.0181 31.16 79.1781 31.32C79.3915 31.48 79.4981 31.56 79.4981 31.56C79.1248 31.9867 78.4048 32.84 77.3381 34.12C76.2715 35.4 74.9381 36.7867 73.3381 38.28C71.7381 39.7733 69.9248 41.0533 67.8981 42.12C65.8715 43.1867 63.6848 43.72 61.3381 43.72ZM96.19 29C95.9767 29.4267 95.6567 29.8 95.23 30.12C94.8567 30.44 94.5633 30.6533 94.35 30.76C94.19 30.8133 94.2433 30.6533 94.51 30.28C95.47 29.1067 96.0833 28.0133 96.35 27C96.67 25.9867 96.67 25.1867 96.35 24.6C96.0833 23.96 95.55 23.64 94.75 23.64C93.6833 23.64 92.43 24.0667 90.99 24.92C89.55 25.7733 88.0567 26.8933 86.51 28.28C85.0167 29.6667 83.6033 31.16 82.27 32.76C80.99 34.3067 79.95 35.8267 79.15 37.32C78.35 38.76 77.95 40.0133 77.95 41.08C77.95 41.88 78.11 42.3867 78.43 42.6C78.75 42.8133 79.07 42.92 79.39 42.92C80.6167 42.92 82.03 42.36 83.63 41.24C85.2833 40.0667 86.9633 38.6 88.67 36.84C90.3767 35.08 92.0033 33.2933 93.55 31.48C95.0967 29.6133 96.43 27.9333 97.55 26.44C98.7233 24.9467 99.5233 23.9333 99.95 23.4C100.537 23.6133 101.23 23.6933 102.03 23.64C102.883 23.5867 103.603 23.5333 104.19 23.48C104.083 23.64 103.523 24.3067 102.51 25.48C101.55 26.6533 100.377 28.0667 98.99 29.72C97.6567 31.32 96.2967 32.9733 94.91 34.68C93.5767 36.3867 92.4567 37.88 91.55 39.16C90.6433 40.44 90.19 41.2933 90.19 41.72C90.19 42.2533 90.2967 42.6 90.51 42.76C90.7767 42.8667 91.1767 42.92 91.71 42.92C92.35 42.8667 93.2833 42.5733 94.51 42.04C95.7367 41.4533 97.31 40.3333 99.23 38.68C101.15 37.0267 103.47 34.5733 106.19 31.32C106.19 31.32 106.297 31.4 106.51 31.56C106.777 31.72 106.91 31.8 106.91 31.8C103.71 35.5333 100.75 38.4667 98.03 40.6C95.31 42.68 92.83 43.72 90.59 43.72C89.4167 43.72 88.6167 43.5333 88.19 43.16C87.8167 42.7867 87.63 42.2533 87.63 41.56C87.63 41.0267 87.8433 40.3867 88.27 39.64C88.75 38.84 89.2833 38.0667 89.87 37.32C90.4567 36.5733 90.9367 35.9867 91.31 35.56C91.31 35.56 91.2567 35.5333 91.15 35.48C91.0433 35.4267 90.99 35.4 90.99 35.4C89.7633 36.8933 88.4567 38.28 87.07 39.56C85.6833 40.84 84.2967 41.8533 82.91 42.6C81.5767 43.3467 80.27 43.72 78.99 43.72C77.6567 43.72 76.7233 43.4 76.19 42.76C75.6567 42.0667 75.39 41.0267 75.39 39.64C75.39 38.3067 75.8167 36.7067 76.67 34.84C77.5233 32.92 78.75 31.0533 80.35 29.24C81.95 27.3733 83.87 25.8267 86.11 24.6C88.4033 23.3733 90.9633 22.76 93.79 22.76C95.1767 22.76 96.1367 23.0267 96.67 23.56C97.2033 24.04 97.4433 24.6267 97.39 25.32C97.3367 26.0133 97.1767 26.7067 96.91 27.4C96.6433 28.0933 96.4033 28.6267 96.19 29ZM106.172 32.52C105.959 32.7333 105.799 32.76 105.692 32.6C105.585 32.3867 105.559 32.1733 105.612 31.96C106.519 31.0533 107.399 29.9867 108.252 28.76C109.159 27.5333 109.905 26.3867 110.492 25.32C111.132 24.2533 111.505 23.5333 111.612 23.16C111.719 23.16 111.879 23.08 112.092 22.92C112.359 22.76 112.599 22.7067 112.812 22.76C112.759 23.1333 112.679 23.48 112.572 23.8C112.519 24.12 112.705 24.4133 113.132 24.68C113.559 24.9467 114.439 25.2133 115.772 25.48C117.105 25.7467 119.132 26.04 121.852 26.36C122.119 26.4133 122.305 26.52 122.412 26.68C122.572 26.7867 122.492 26.9733 122.172 27.24C121.159 28.04 120.039 29.0533 118.812 30.28C117.585 31.5067 116.385 32.8133 115.212 34.2C114.092 35.5333 113.159 36.84 112.412 38.12C111.719 39.4 111.372 40.4667 111.372 41.32C111.372 42.28 111.799 42.76 112.652 42.76C113.719 42.76 114.919 42.3333 116.252 41.48C117.639 40.6267 119.025 39.5867 120.412 38.36C121.799 37.08 123.079 35.8 124.252 34.52C125.479 33.1867 126.492 32.0933 127.292 31.24L127.932 31.72C127.185 32.4667 126.225 33.5067 125.052 34.84C123.879 36.1733 122.545 37.5333 121.052 38.92C119.612 40.2533 118.065 41.4 116.412 42.36C114.759 43.2667 113.052 43.72 111.292 43.72C110.279 43.72 109.372 43.48 108.572 43C107.772 42.5733 107.372 41.7733 107.372 40.6C107.372 39.48 107.852 38.3067 108.812 37.08C109.772 35.8533 110.972 34.6267 112.412 33.4C113.852 32.12 115.345 30.92 116.892 29.8C118.492 28.6267 119.905 27.56 121.132 26.6L121.692 27.32C121.159 27.1067 120.225 26.92 118.892 26.76C117.559 26.5467 116.172 26.28 114.732 25.96C113.292 25.5867 112.039 25.1067 110.972 24.52C109.959 23.9333 109.452 23.1333 109.452 22.12C109.452 21.5867 109.665 20.9467 110.092 20.2C110.572 19.4 111.212 19 112.012 19C112.759 19 113.265 19.16 113.532 19.48C113.799 19.7467 113.932 20.12 113.932 20.6C113.932 20.92 113.665 21.5867 113.132 22.6C112.599 23.56 111.932 24.7067 111.132 26.04C110.332 27.32 109.479 28.5467 108.572 29.72C107.719 30.8933 106.919 31.8267 106.172 32.52Z" fill="#A4A684"/>
<g clip-path="url(#clip0_99_63)">
<path d="M131.563 11C129.391 11 127.625 12.8431 127.625 15.1087V48.8913C127.625 51.1569 129.391 53 131.563 53H138.125V11H131.563Z" fill="#A4A684"/>
<path d="M162.831 11H135.5V53H162.831C165.13 53 167 51.1569 167 48.8913V15.1087C167 12.8431 165.13 11 162.831 11Z" fill="#C3A5A6"/>
<path d="M162.831 11H151.25V53H162.831C165.13 53 167 51.1569 167 48.8913V15.1087C167 12.8431 165.13 11 162.831 11Z" fill="#C27A88"/>
<path d="M131.848 21.0435H126.37C125.614 21.0435 125 20.4305 125 19.6739C125 18.9173 125.614 18.3043 126.37 18.3043H131.848C132.604 18.3043 133.217 18.9173 133.217 19.6739C133.217 20.4305 132.604 21.0435 131.848 21.0435Z" fill="#E8D4CE"/>
<path d="M131.848 29.2609H126.37C125.614 29.2609 125 28.6479 125 27.8913C125 27.1347 125.614 26.5217 126.37 26.5217H131.848C132.604 26.5217 133.217 27.1347 133.217 27.8913C133.217 28.6479 132.604 29.2609 131.848 29.2609Z" fill="#E8D4CE"/>
<path d="M131.848 37.4783H126.37C125.614 37.4783 125 36.8653 125 36.1087C125 35.3522 125.614 34.7391 126.37 34.7391H131.848C132.604 34.7391 133.217 35.3522 133.217 36.1087C133.217 36.8653 132.604 37.4783 131.848 37.4783Z" fill="#E8D4CE"/>
<path d="M131.848 45.6957H126.37C125.614 45.6957 125 45.0827 125 44.3261C125 43.5696 125.614 42.9565 126.37 42.9565H131.848C132.604 42.9565 133.217 43.5696 133.217 44.3261C133.217 45.0827 132.604 45.6957 131.848 45.6957Z" fill="#E8D4CE"/>
<path d="M160.318 21.5H142.182C141.391 21.5 140.75 20.9125 140.75 20.1875C140.75 19.4625 141.391 18.875 142.182 18.875H160.318C161.109 18.875 161.75 19.4625 161.75 20.1875C161.75 20.9125 161.109 21.5 160.318 21.5Z" fill="#EDEEDB"/>
<path d="M160.318 18.875H151.25V21.5H160.318C161.109 21.5 161.75 20.9125 161.75 20.1875C161.75 19.4624 161.109 18.875 160.318 18.875Z" fill="#A4A684"/>
<path d="M151.25 45.125C150.919 45.125 150.588 45.008 150.32 44.7744C149.216 43.8093 148.183 42.956 147.239 42.176C143.472 39.0631 140.75 36.8138 140.75 33.1693C140.75 29.5697 143.37 26.75 146.714 26.75C148.89 26.75 150.334 27.8885 151.25 29.0826C152.166 27.8885 153.61 26.75 155.786 26.75C159.13 26.75 161.75 29.5698 161.75 33.1693C161.75 36.8139 159.028 39.0631 155.261 42.176C154.317 42.956 153.284 43.8093 152.18 44.7744C151.912 45.0079 151.581 45.125 151.25 45.125Z" fill="#EDEEDB"/>
<path d="M152.18 44.7743C153.284 43.8092 154.317 42.9558 155.261 42.1759C159.028 39.063 161.75 36.8137 161.75 33.1692C161.75 29.5696 159.13 26.75 155.786 26.75C153.61 26.75 152.166 27.8885 151.25 29.0826V45.125C151.581 45.125 151.912 45.0079 152.18 44.7743Z" fill="#A4A684"/>
</g>
<defs>
<clipPath id="clip0_99_63">
<rect width="42" height="42" fill="white" transform="translate(125 11)"/>
</clipPath>
</defs>
</svg>
