<svg width="15" height="17" viewBox="0 0 15 17" fill="none" xmlns="http://www.w3.org/2000/svg">
<path d="M10.1163 3.08104L12.1791 5.43852M1 16L1.03461 15.7231C1.15707 14.7435 1.2183 14.2537 1.35758 13.7963C1.48117 13.3905 1.64999 13.0046 1.85991 12.6482C2.09646 12.2464 2.40261 11.8965 3.01491 11.1968L11.5099 1.48825C12.0796 0.83725 13.0031 0.83725 13.5728 1.48825C14.1424 2.13925 14.1424 3.19473 13.5728 3.84573L4.92185 13.7324C4.36636 14.3673 4.08863 14.6847 3.77227 14.937C3.49147 15.1611 3.18862 15.3467 2.86995 15.4901C2.51093 15.6516 2.12588 15.7404 1.35585 15.9179L1 16Z" stroke="#C27A88" stroke-width="2" stroke-linecap="round" stroke-linejoin="round"/>
</svg>
