<svg width="60" height="60" viewBox="0 0 60 60" fill="none" xmlns="http://www.w3.org/2000/svg">
<g clip-path="url(#clip0_10_2)">
<path fill-rule="evenodd" clip-rule="evenodd" d="M15 5C12.2386 5 10 7.23857 10 10V50C10 52.7615 12.2386 55 15 55H45C47.7615 55 50 52.7615 50 50V16.0355C50 14.7094 49.4732 13.4377 48.5355 12.5L42.5 6.46447C41.5623 5.52677 40.2905 5 38.9645 5H15ZM40.5958 26.9825C41.5723 26.0063 41.5723 24.4233 40.5958 23.447C39.6195 22.4707 38.0367 22.4707 37.0602 23.447L26.4538 34.0538L22.9182 30.518C21.9419 29.5418 20.3589 29.5418 19.3826 30.518C18.4063 31.4945 18.4063 33.0773 19.3826 34.0538L24.5092 39.1803C25.583 40.254 27.3242 40.254 28.3982 39.1803L40.5958 26.9825Z" fill="#C27A88"/>
</g>
<defs>
<clipPath id="clip0_10_2">
<rect width="60" height="60" fill="white"/>
</clipPath>
</defs>
</svg>
